<?xml version="1.0" encoding="utf-8"?>
<!-- Generator: Adobe Illustrator 27.1.0, SVG Export Plug-In . SVG Version: 6.00 Build 0)  -->
<svg version="1.1" id="Layer_1" xmlns="http://www.w3.org/2000/svg" xmlns:xlink="http://www.w3.org/1999/xlink" x="0px" y="0px"
	 viewBox="0 0 250 250" style="enable-background:new 0 0 250 250;" xml:space="preserve">
<style type="text/css">
	.st0{fill:#FFFFFF;}
</style>
<g>
	<g>
		<path class="st0" d="M206.26,29.98c8.08,0,16.16,0,24.23,0c0,25.13,0,50.26,0,75.39c-7.54-5.74-15.29-10.18-24.23-13.35
			C206.26,71.34,206.26,50.66,206.26,29.98z"/>
		<g>
			<path class="st0" d="M84.55,29.98c8.08,0,16.16,0,24.23,0c1.78,9.06,3.64,18.11,5.6,27.14c0.47-0.1,0.71-0.15,1.18-0.24
				c0-8.96,0-17.93,0-26.89c8.08,0,16.16,0,24.23,0c0,23.06,0,46.12,0,69.18c-8.11,3.39-16.15,6.94-24.23,10.4
				c-1.92-9.15-3.79-18.31-5.6-27.49c-0.47,0.15-0.71,0.23-1.18,0.38c0,9.98,0,19.95,0,29.93c-7.95,3.17-15.83,6.21-24.23,7.93
				C84.55,90.2,84.55,60.09,84.55,29.98z"/>
			<path class="st0" d="M145.3,29.98c10.38,0,20.75,0,31.13,0c4.31,0.06,8.63,0.11,12.87,0.83c3.25,0.55,5.78,1.8,7.54,3.74
				c2.2,2.42,3,5.73,3.55,8.7c0.93,5,0.92,10.56,0.92,15.79c0,5.36,0.01,11.04-0.92,16.18c-0.55,3.05-1.31,6.48-3.55,8.96
				c-1.76,1.94-4.29,3.07-7.54,3.54c-4.25,0.61-8.58,0.87-12.87,1.24c-10.96,1.2-20.85,4.04-31.13,7.98
				C145.3,74.62,145.3,52.3,145.3,29.98z M171.04,70.76c0.93-0.07,1.74-0.22,2.42-0.47c0.68-0.25,1.26-0.81,1.72-1.68
				c0.47-0.87,0.81-2.19,1.02-3.94c0.22-1.75,0.32-4.17,0.32-7.2c0-3.03-0.11-5.33-0.32-6.96c-0.22-1.63-0.56-2.82-1.02-3.6
				c-0.47-0.77-1.04-1.25-1.72-1.43c-0.68-0.18-1.49-0.27-2.42-0.26c-0.6,0.01-0.9,0.01-1.51,0.02c0,8.55,0,17.1,0,25.64
				C170.13,70.83,170.43,70.8,171.04,70.76z"/>
			<path class="st0" d="M58.33,181.34c0-1.04-0.46-1.82-1.38-2.37c-0.92-0.55-2.37-1.02-4.34-1.47c-1.97-0.45-4.5-1.01-7.55-1.76
				c-3.71-0.9-7.36-2.16-10.88-3.52c-2.75-1.06-4.95-2.28-6.54-3.42c-1.59-1.13-2.83-2.75-3.71-4.84s-1.45-4.87-1.7-8.28
				c-0.33-4.59-0.35-9.21-0.38-13.81c-0.02-3.69,0.15-7.55,1.26-11.06c0.81-2.55,2.5-3.91,4.84-4.07c3.31-0.24,6.9,0.94,10.13,1.79
				c5.7,1.5,11.49,2.96,17.24,3.83c5.95,0.89,12.28,1.1,18.31,2.15c3.21,0.56,6.81,1.31,9.18,3.65c1.89,1.86,2.95,4.53,3.21,7.79
				c0.29,3.69,0.34,7.39,0.38,11.09c-8.25,1.3-16.3,1.96-24.66,1.74c0-1.6-0.42-3.03-1.26-4.3c-0.84-1.27-2.47-2.01-4.91-2.36
				c-1.68-0.24-2.89-0.21-3.65,0.18c-0.75,0.39-1.13,1.42-1.13,3.11c0,0.92,0.44,1.68,1.32,2.26c0.88,0.58,2.2,1.14,3.96,1.62
				c1.76,0.48,4.01,0.93,6.73,1.28c3.19,0.4,6.42,0.76,9.62,1.04c3.69,0.32,6.54,0.69,8.56,1.3c2.01,0.61,3.48,1.73,4.4,3.38
				c0.92,1.65,1.47,3.91,1.64,6.7c0.21,3.51,0.23,7.03,0.25,10.55c0.02,3.78-0.19,7.68-1.2,11.32c-0.78,2.81-2.36,4.98-4.66,6.46
				c-2.86,1.85-6.4,2.64-9.75,3.05c-5.47,0.68-11.12,0.81-16.61,0.81c-6.17,0-12.66-0.1-18.75-1.31c-3.74-0.75-7.6-2.3-10.13-5.24
				c-2.45-2.84-3.66-6.63-4.09-10.33c-0.61-5.23-0.59-10.58-0.5-15.87c9.01,2.86,18.05,4.84,27.43,6.06c0,2.21,0.42,3.97,1.26,5.26
				c0.84,1.28,2.1,2,3.77,2.16c1.68,0.15,2.81-0.07,3.4-0.63C58.03,184.71,58.33,183.41,58.33,181.34z"/>
			<path class="st0" d="M123.75,170.75c1.26-0.35,1.89-0.52,3.15-0.86c0.93-18.58,1.84-37.16,2.77-55.75
				c10.27-4.56,20.58-8.91,31.33-12.23c-3.71,33.97-6.84,68-9.94,102.02c-17.28,0.15-34.56,0.33-51.83,0.49
				c-3.39-24.71-6.5-49.45-9.18-74.25c10.61-3.35,20.79-7.63,30.95-12.14C121.9,135.6,122.83,153.17,123.75,170.75z"/>
			<path class="st0" d="M208.79,195.79c-0.4-0.02-0.6-0.03-1.01-0.05c-0.84,2.29-2.46,4.39-4.65,6.39
				c-2.11,1.93-5.88,3.12-8.68,3.05c-3.25-0.09-6.67-0.02-10-0.08c-2.98-0.06-5.64-0.56-7.99-1.5c-2.35-0.94-4.41-2.53-6.1-4.72
				c-2.12-2.75-3.34-6.2-4.21-9.53c-1.34-5.12-1.97-10.49-2.45-15.73c-0.7-7.58-0.81-15.33-0.82-22.96c0-7.12,0.04-14.36,0.5-21.43
				c0.31-4.76,0.69-9.72,1.89-14.27c0.84-3.19,1.9-6.5,3.84-9.32c1.64-2.39,3.76-4.47,6.29-5.73c2.72-1.36,6.31-2.21,9.31-2.4
				c4.31-0.27,8.77-0.03,12.9,0.75c6.18,1.17,12.4,3.56,17.74,7.34c4.13,2.92,7.59,6.93,9.88,11.49c2.26,4.52,3.72,9.56,4.28,14.56
				c0.75,6.64,0.9,13.44,0.94,20.17c-9.2-5.21-18.62-8.93-28.94-11.26c0.01-3.21,0.02-6.52-0.57-9.65c-0.36-1.91-1.7-3.16-3.96-3.54
				c-1.09-0.18-1.97-0.09-2.64,0.26c-0.67,0.35-1.2,1.26-1.57,2.74c-0.38,1.48-0.63,3.67-0.75,6.58c-0.17,3.96-0.18,7.94-0.19,11.9
				c-0.01,4.39,0.01,8.8,0.06,13.21c0.04,3.34,0.25,5.92,0.63,7.71c0.38,1.79,0.97,2.98,1.76,3.56c0.8,0.58,1.95,0.93,3.46,1.07
				c1.93,0.18,3.1-0.85,3.46-3.08c0.55-3.42,0.58-6.97,0.57-10.45c-2.42-0.38-3.62-0.54-6.04-0.81c0-5.09,0-10.18,0-15.27
				c12.31,1.91,23.55,5.62,34.6,11.38c0,16.01,0,32.02,0,48.03c-6.92-0.08-13.84-0.15-20.76-0.2
				C209.25,200.7,209.1,199.07,208.79,195.79z"/>
			<path class="st0" d="M71.81,29.98c-14.68,0-29.37,0-44.05,0c-2.54,25.15-5.28,50.29-8.29,75.39c8,6.09,16.63,11.28,26.39,14.01
				c0.22-6.11,0.43-12.23,0.65-18.34c2.58,0.63,3.88,0.89,6.46,1.31c0.21,6.26,0.43,12.52,0.65,18.79
				c8.91,1.24,17.48,1.06,26.39-0.15C76.95,90.68,74.31,60.34,71.81,29.98z M52.02,87.45c0,1.26-1.02,2.29-2.29,2.29
				s-2.29-1.02-2.29-2.29V48.6c0-1.26,1.02-2.29,2.29-2.29s2.29,1.02,2.29,2.29V87.45z"/>
		</g>
	</g>
	<g>
		<path class="st0" d="M97.55,228.79c0-0.35-0.12-0.6-0.36-0.76c-0.24-0.15-0.62-0.26-1.13-0.33c-0.52-0.07-1.17-0.13-1.97-0.18
			c-0.8-0.05-1.75-0.15-2.84-0.28c-0.72-0.09-1.29-0.21-1.71-0.36c-0.42-0.15-0.74-0.46-0.97-0.92c-0.23-0.46-0.38-1.13-0.44-2.01
			c-0.07-0.88-0.1-2.08-0.1-3.62c0-1.27,0.11-2.33,0.33-3.19c0.22-0.86,0.64-1.54,1.27-2.06c0.62-0.51,1.51-0.88,2.65-1.1
			c1.14-0.22,2.64-0.33,4.5-0.33c2.08,0,3.68,0.16,4.78,0.48c1.11,0.32,1.91,0.79,2.4,1.43c0.49,0.64,0.77,1.42,0.84,2.35
			c0.07,0.93,0.1,2,0.1,3.21l-6.44,0.2c0-0.5-0.11-0.94-0.33-1.32c-0.22-0.37-0.65-0.56-1.28-0.56c-0.44,0-0.76,0.08-0.95,0.25
			c-0.2,0.16-0.3,0.51-0.3,1.04c0,0.29,0.12,0.49,0.35,0.62c0.23,0.13,0.58,0.24,1.04,0.31c0.46,0.08,1.05,0.14,1.76,0.2
			c0.71,0.05,1.55,0.15,2.52,0.28c0.96,0.13,1.71,0.32,2.24,0.56c0.53,0.24,0.91,0.63,1.15,1.17c0.24,0.54,0.38,1.25,0.43,2.14
			c0.04,0.89,0.07,2.03,0.07,3.44c0,1.6-0.1,2.9-0.31,3.91c-0.21,1.01-0.61,1.8-1.22,2.37c-0.6,0.57-1.45,0.96-2.55,1.17
			c-1.1,0.21-2.54,0.31-4.34,0.31c-2.08,0-3.72-0.14-4.9-0.41c-1.18-0.27-2.07-0.75-2.65-1.43c-0.58-0.68-0.94-1.57-1.07-2.68
			c-0.13-1.11-0.18-2.5-0.13-4.19l7.17-0.3c0,0.72,0.11,1.28,0.33,1.68c0.22,0.39,0.55,0.59,0.99,0.59c0.44,0,0.73-0.1,0.89-0.31
			C97.47,229.95,97.55,229.49,97.55,228.79z"/>
		<path class="st0" d="M106.65,213.93h7.4v6.61h1.81v-6.61h7.4v23.02h-7.4v-9.34h-1.81v9.34h-7.4V213.93z"/>
		<path class="st0" d="M143.74,213.93h9.57c1.45,0,2.65,0.07,3.6,0.2c0.95,0.13,1.7,0.47,2.25,1.02c0.55,0.55,0.93,1.39,1.15,2.52
			c0.22,1.13,0.33,2.68,0.33,4.65c0,2.13-0.08,3.83-0.25,5.11c-0.16,1.28-0.52,2.27-1.07,2.96c-0.55,0.69-1.35,1.15-2.4,1.36
			c-1.05,0.22-2.47,0.33-4.24,0.33h-1.55v4.87h-7.4V213.93z M151.93,225.17c0.2,0,0.37-0.02,0.53-0.07c0.15-0.04,0.27-0.14,0.36-0.3
			c0.09-0.15,0.15-0.38,0.2-0.67c0.04-0.3,0.07-0.7,0.07-1.2c0-0.5-0.02-0.9-0.07-1.2c-0.04-0.3-0.11-0.52-0.2-0.67
			c-0.09-0.15-0.21-0.25-0.36-0.3c-0.15-0.04-0.33-0.07-0.53-0.07h-0.79v4.47H151.93z"/>
		<path class="st0" d="M142,218.83c-0.23-1.58-0.67-2.75-1.32-3.5c-0.65-0.76-1.55-1.22-2.7-1.4c-1.15-0.18-2.64-0.26-4.46-0.26
			c-1.82,0-3.29,0.09-4.42,0.26c-1.13,0.18-2.01,0.64-2.63,1.4c-0.62,0.76-1.05,1.92-1.27,3.5c-0.22,1.58-0.33,3.76-0.33,6.54
			c0,1.86,0.04,3.45,0.13,4.75c0.09,1.3,0.25,2.4,0.48,3.27c0.23,0.88,0.55,1.57,0.95,2.09c0.41,0.52,0.93,0.9,1.58,1.15
			c0.65,0.25,1.42,0.41,2.32,0.48c0.9,0.07,1.95,0.1,3.16,0.1c1.21,0,2.27-0.03,3.19-0.1c0.92-0.07,1.7-0.22,2.35-0.48
			c0.65-0.25,1.18-0.64,1.61-1.15c0.43-0.51,0.77-1.21,1.02-2.09c0.25-0.88,0.43-1.97,0.53-3.27c0.1-1.3,0.15-2.89,0.15-4.75
			C142.35,222.59,142.23,220.41,142,218.83z M134.49,233.01c0,0.48-0.39,0.87-0.87,0.87s-0.87-0.39-0.87-0.87v-14.85
			c0-0.48,0.39-0.87,0.87-0.87s0.87,0.39,0.87,0.87V233.01z"/>
	</g>
	<g>
		<path class="st0" d="M223.89,12.79H26.11c-11.46,0-20.75,9.29-20.75,20.75v173.04c0,11.46,9.29,20.75,20.75,20.75h48.88
			c0.73,0,1.32-0.59,1.32-1.32l0,0c0-0.73-0.59-1.32-1.32-1.32H26.11c-10,0-18.11-8.11-18.11-18.11V33.54
			c0-10,8.11-18.11,18.11-18.11h197.79c10,0,18.11,8.11,18.11,18.11v173.04c0,10-8.11,18.11-18.11,18.11h-53.95
			c-0.73,0-1.32,0.59-1.32,1.32l0,0c0,0.73,0.59,1.32,1.32,1.32h53.95c11.46,0,20.75-9.29,20.75-20.75V33.54
			C244.64,22.08,235.35,12.79,223.89,12.79z"/>
	</g>
</g>
</svg>
