<?xml version="1.0" encoding="UTF-8"?>
<svg id="Layer_1" data-name="Layer 1" xmlns="http://www.w3.org/2000/svg" viewBox="0 0 250 250">
  <defs>
    <style>
      .cls-1 {
        opacity: .14;
      }
    </style>
  </defs>
  <path class="cls-1" d="m167.33,0H0v250h250V0h-82.67Zm-82.67,1.98h80.69v80.34h-80.69V1.98Zm80.69,162.67h-80.69v-79.32h80.69v79.32ZM1.98,1.98h80.69v80.34H1.98V1.98Zm0,83.36h80.69v79.32H1.98v-79.32Zm80.69,162.67H1.98v-80.34h80.69v80.34Zm82.67,0h-80.69v-80.34h80.69v80.34Zm82.67,0h-80.69v-80.34h80.69v80.34Zm0-83.36h-80.69v-79.32h80.69v79.32Zm-80.69-82.33V1.98h80.69v80.34h-80.69Z"/>
</svg>