<?xml version="1.0" encoding="UTF-8"?>
<svg id="Layer_1" data-name="Layer 1" xmlns="http://www.w3.org/2000/svg" viewBox="0 0 987.03 262.15">
  <defs>
    <style>
      .cls-1 {
        letter-spacing: 0em;
      }

      .cls-2 {
        letter-spacing: 0em;
      }

      .cls-3 {
        opacity: .08;
      }

      .cls-3, .cls-4, .cls-5 {
        fill: none;
        font-family: UrbanSpace-Italic, 'Urban Space';
        font-size: 104.02px;
        font-style: italic;
        stroke: #000;
      }

      .cls-6 {
        letter-spacing: 0em;
      }

      .cls-7 {
        letter-spacing: 0em;
      }

      .cls-8 {
        letter-spacing: 0em;
      }

      .cls-9 {
        letter-spacing: -.07em;
      }

      .cls-10 {
        letter-spacing: -.05em;
      }

      .cls-4 {
        opacity: .3;
      }

      .cls-5 {
        opacity: .17;
      }
    </style>
  </defs>
  <text class="cls-4" transform="translate(7.87 87.33)"><tspan class="cls-6" x="0" y="0">CHO</tspan><tspan class="cls-2" x="175.68" y="0">O</tspan><tspan class="cls-1" x="235.18" y="0">S</tspan><tspan x="294.37" y="0">E </tspan><tspan class="cls-10" x="375.6" y="0">Y</tspan><tspan class="cls-7" x="432.39" y="0">O</tspan><tspan class="cls-8" x="492.41" y="0">UR PL</tspan><tspan class="cls-9" x="740.69" y="0">A</tspan><tspan class="cls-2" x="795.1" y="0">Y</tspan><tspan class="cls-8" x="855.63" y="0">ER</tspan></text>
  <text class="cls-5" transform="translate(7.87 168.93)"><tspan class="cls-6" x="0" y="0">CHO</tspan><tspan class="cls-2" x="175.68" y="0">O</tspan><tspan class="cls-1" x="235.18" y="0">S</tspan><tspan x="294.37" y="0">E </tspan><tspan class="cls-10" x="375.6" y="0">Y</tspan><tspan class="cls-7" x="432.39" y="0">O</tspan><tspan class="cls-8" x="492.41" y="0">UR PL</tspan><tspan class="cls-9" x="740.69" y="0">A</tspan><tspan class="cls-2" x="795.1" y="0">Y</tspan><tspan class="cls-8" x="855.63" y="0">ER</tspan></text>
  <text class="cls-3" transform="translate(7.87 250.53)"><tspan class="cls-6" x="0" y="0">CHO</tspan><tspan class="cls-2" x="175.68" y="0">O</tspan><tspan class="cls-1" x="235.18" y="0">S</tspan><tspan x="294.37" y="0">E </tspan><tspan class="cls-10" x="375.6" y="0">Y</tspan><tspan class="cls-7" x="432.39" y="0">O</tspan><tspan class="cls-8" x="492.41" y="0">UR PL</tspan><tspan class="cls-9" x="740.69" y="0">A</tspan><tspan class="cls-2" x="795.1" y="0">Y</tspan><tspan class="cls-8" x="855.63" y="0">ER</tspan></text>
</svg>