<?xml version="1.0" encoding="utf-8"?>
<!-- Generator: Adobe Illustrator 27.1.0, SVG Export Plug-In . SVG Version: 6.00 Build 0)  -->
<svg version="1.1" id="Layer_1" xmlns="http://www.w3.org/2000/svg" xmlns:xlink="http://www.w3.org/1999/xlink" x="0px" y="0px"
	 viewBox="0 0 250 250" style="enable-background:new 0 0 250 250;" xml:space="preserve">
<style type="text/css">
	.st0{fill:#FFFFFF;}
</style>
<g>
	<circle cx="122.57" cy="123.34" r="115"/>
	<g>
		<g>
			<path class="st0" d="M122.57,63.98c19.33,0,21.62,0.07,29.26,0.42c7.06,0.32,10.89,1.5,13.45,2.49c3.38,1.31,5.79,2.88,8.33,5.42
				c2.53,2.53,4.1,4.95,5.42,8.33c0.99,2.55,2.17,6.39,2.49,13.44c0.35,7.64,0.42,9.93,0.42,29.26s-0.07,21.62-0.42,29.26
				c-0.32,7.06-1.5,10.89-2.49,13.45c-1.31,3.38-2.88,5.79-5.42,8.33c-2.53,2.53-4.95,4.1-8.33,5.42
				c-2.55,0.99-6.39,2.17-13.45,2.49c-7.63,0.35-9.92,0.42-29.26,0.42c-19.34,0-21.62-0.07-29.26-0.42
				c-7.06-0.32-10.89-1.5-13.45-2.49c-3.38-1.31-5.79-2.88-8.33-5.42c-2.53-2.53-4.1-4.95-5.42-8.33
				c-0.99-2.55-2.17-6.39-2.49-13.44c-0.35-7.64-0.42-9.93-0.42-29.26s0.07-21.62,0.42-29.26c0.32-7.06,1.5-10.89,2.49-13.45
				c1.31-3.38,2.88-5.79,5.42-8.33c2.53-2.53,4.95-4.1,8.33-5.42c2.55-0.99,6.39-2.17,13.44-2.49
				C100.95,64.05,103.24,63.98,122.57,63.98 M122.57,50.93c-19.66,0-22.13,0.08-29.85,0.44c-7.71,0.35-12.97,1.58-17.58,3.37
				c-4.76,1.85-8.8,4.33-12.82,8.35c-4.03,4.03-6.5,8.06-8.35,12.82c-1.79,4.61-3.01,9.87-3.37,17.58
				c-0.35,7.72-0.44,10.19-0.44,29.85c0,19.66,0.08,22.13,0.44,29.85c0.35,7.71,1.58,12.97,3.37,17.58
				c1.85,4.76,4.33,8.8,8.35,12.82c4.03,4.03,8.06,6.5,12.82,8.35c4.61,1.79,9.87,3.01,17.58,3.37c7.72,0.35,10.19,0.44,29.85,0.44
				c19.66,0,22.13-0.08,29.85-0.44c7.71-0.35,12.97-1.58,17.58-3.37c4.76-1.85,8.8-4.33,12.82-8.35c4.03-4.03,6.5-8.06,8.35-12.82
				c1.79-4.61,3.01-9.87,3.37-17.58c0.35-7.72,0.44-10.19,0.44-29.85s-0.08-22.13-0.44-29.85c-0.35-7.71-1.58-12.97-3.37-17.58
				c-1.85-4.76-4.33-8.8-8.35-12.82c-4.03-4.03-8.06-6.5-12.82-8.35c-4.61-1.79-9.87-3.01-17.58-3.37
				C144.7,51.01,142.23,50.93,122.57,50.93L122.57,50.93z"/>
			<path class="st0" d="M122.57,86.16c-20.54,0-37.18,16.65-37.18,37.18s16.65,37.18,37.18,37.18c20.54,0,37.18-16.65,37.18-37.18
				S143.1,86.16,122.57,86.16z M122.57,147.47c-13.33,0-24.14-10.81-24.14-24.14s10.81-24.14,24.14-24.14s24.14,10.81,24.14,24.14
				S135.9,147.47,122.57,147.47z"/>
			<circle class="st0" cx="161.22" cy="84.69" r="8.69"/>
		</g>
	</g>
</g>
</svg>
