<?xml version="1.0" encoding="UTF-8"?>
<svg id="Layer_1" data-name="Layer 1" xmlns="http://www.w3.org/2000/svg" xmlns:xlink="http://www.w3.org/1999/xlink" viewBox="0 0 400 449">
  <defs>
    <style>
      .cls-1 {
        fill: #ef93df;
      }
    </style>
  </defs>
  <path class="cls-1" d="m343.46,401.51v-243.74c0-78.9-64.56-143.46-143.46-143.46h0c-78.9,0-143.46,64.56-143.46,143.46v243.74h286.92Z"/>
  <image width="2745" height="4338" transform="translate(82.5 32.24) scale(.09)" xlink:href="../../Taylor-Swift.png"/>
  <g>
    <path d="m66.79,405.58c-1.95-.44-2.92-.67-4.87-1.17,0-3.71,0-5.57,0-9.28,8.07,2.04,12.11,2.82,20.18,4.03,0,3.71,0,5.57,0,9.28-1.95-.29-2.92-.45-4.87-.79,0,9.28,0,13.91,0,23.19-4.17-.72-6.26-1.14-10.44-2.08,0-9.28,0-13.91,0-23.19Z"/>
    <path d="m107.89,434.06c-4.55-.19-6.82-.33-11.36-.73-.11-2.79-.17-4.19-.28-6.98-1.11-.1-1.67-.15-2.78-.26-.11,2.77-.17,4.16-.28,6.93-4.55-.46-6.82-.74-11.36-1.43,1.19-10.65,2.38-21.3,3.57-31.96,7.59,1.02,11.38,1.36,18.97,1.78,1.17,10.88,2.35,21.76,3.52,32.64Zm-12.06-16.93c-.11-2.83-.17-4.25-.28-7.08-.61-.06-.92-.08-1.53-.14-.09,2.81-.14,4.22-.23,7.03.82.08,1.22.12,2.04.19Z"/>
    <path d="m132.1,401.64c-.4,2.3-.9,4.41-1.48,6.31-.59,1.9-1.23,3.76-1.93,5.57-.7,1.81-1.43,3.67-2.2,5.57-.77,1.9-1.55,4-2.32,6.3.26,3.56.39,5.34.65,8.9-4.56.06-6.85.06-11.41-.05.2-3.56.31-5.34.51-8.89-.77-2.3-1.55-4.41-2.32-6.32-.77-1.91-1.51-3.77-2.2-5.59-.7-1.82-1.33-3.69-1.9-5.6-.57-1.91-1.06-4.02-1.46-6.33,4.53.22,6.79.28,11.32.33.52,4.31.78,6.46,1.3,10.77.35,0,.53,0,.88,0,.54-4.3.81-6.46,1.35-10.76,4.49,0,6.73-.05,11.22-.21Z"/>
    <path d="m133.49,401.59c4.17-.16,6.26-.27,10.44-.54,0,9,0,13.5,0,22.5,2.78-.18,4.17-.28,6.96-.5v9.97c-6.96.55-10.44.77-17.39,1.03,0-10.82,0-21.65,0-32.47Z"/>
    <path d="m152.55,416.57c0-3.93.16-7.02.46-9.27.31-2.25.9-3.95,1.79-5.09s2.12-1.91,3.71-2.3c1.59-.39,3.67-.72,6.24-.98,2.57-.26,4.66-.36,6.28-.29,1.62.07,2.89.58,3.8,1.55s1.53,2.54,1.86,4.73c.32,2.19.49,5.25.49,9.17,0,2.63-.07,4.87-.21,6.73-.14,1.86-.39,3.42-.74,4.7-.36,1.28-.84,2.31-1.44,3.11-.6.79-1.36,1.42-2.27,1.88-.91.46-2.02.8-3.32,1.03-1.3.23-2.8.44-4.5.61-1.7.17-3.19.27-4.45.3-1.27.03-2.36-.1-3.27-.37s-1.65-.75-2.23-1.43c-.57-.68-1.02-1.62-1.34-2.83-.33-1.21-.55-2.73-.67-4.56-.12-1.83-.19-4.06-.19-6.69Zm10.67-.97c0,1.58,0,2.82.02,3.73.02.91.07,1.58.16,2,.09.42.25.68.46.77.22.09.54.11.97.06.4-.04.72-.13.95-.26.23-.13.4-.42.51-.86.11-.44.17-1.12.19-2.04.02-.91.02-2.16.02-3.74s0-2.81-.02-3.69c-.02-.88-.08-1.52-.19-1.93-.11-.4-.28-.64-.51-.71-.23-.07-.55-.08-.95-.04-.43.04-.76.12-.97.24s-.37.39-.46.81c-.09.43-.15,1.08-.16,1.96-.02.88-.02,2.11-.02,3.69Z"/>
    <path d="m179.31,397.69c5.4-.64,8.1-.97,13.5-1.65,2.04-.26,3.73-.38,5.08-.38,1.35,0,2.41.3,3.18.9.77.6,1.31,1.59,1.62,2.97.31,1.38.46,3.33.46,5.83,0,1.45-.07,2.79-.21,4.01-.14,1.22-.35,2.28-.63,3.16-.28.88-.62,1.6-1.04,2.15-.42.55-.92.87-1.51.98,1.08,4.65,1.61,6.98,2.69,11.63-4.14.52-6.21.79-10.34,1.3-.63-3.43-.95-5.14-1.58-8.57-.31.04-.47.06-.79.1v8.77c-4.17.52-6.26.77-10.44,1.27v-32.47Zm11.55,13.53c.28-.03.53-.1.74-.19.22-.09.39-.23.51-.43.12-.2.21-.49.28-.87s.09-.89.09-1.54-.03-1.16-.09-1.52-.15-.63-.28-.8c-.12-.17-.3-.27-.51-.31-.22-.03-.46-.03-.74,0-.44.06-.67.08-1.11.14v5.66c.44-.06.67-.08,1.11-.14Z"/>
    <path d="m233.02,412.17c0-.49-.17-.83-.51-1.01-.34-.18-.87-.28-1.6-.29s-1.65,0-2.78.05c-1.13.05-2.47.07-4.01.06-1.02,0-1.82-.08-2.41-.23-.59-.15-1.04-.53-1.37-1.14s-.53-1.53-.63-2.76c-.09-1.23-.14-2.92-.14-5.09,0-1.79.15-3.31.46-4.55s.9-2.28,1.79-3.11c.88-.83,2.13-1.49,3.73-1.98,1.61-.49,3.73-.88,6.35-1.16,2.94-.31,5.19-.31,6.75-.01,1.56.3,2.69.87,3.39,1.7.7.83,1.09,1.9,1.18,3.21.09,1.31.14,2.81.14,4.51-3.64.43-5.45.67-9.09,1.15,0-.71-.16-1.31-.46-1.81-.31-.49-.91-.69-1.81-.6-.62.07-1.07.23-1.35.49-.28.26-.42.76-.42,1.51,0,.4.16.68.49.83s.81.25,1.46.28c.65.04,1.48.05,2.48.02s2.19-.01,3.55.04c1.36.05,2.41.22,3.15.49s1.28.77,1.62,1.5c.34.73.54,1.71.6,2.96.06,1.25.09,2.86.09,4.84,0,2.26-.15,4.11-.44,5.56-.29,1.45-.87,2.61-1.72,3.5s-2.05,1.54-3.59,1.99c-1.55.44-3.59.8-6.12,1.07-2.94.31-5.24.38-6.91.18-1.67-.2-2.92-.72-3.73-1.59-.82-.86-1.32-2.06-1.51-3.6-.19-1.54-.25-3.5-.19-5.89,4.04-.65,6.07-.96,10.11-1.57,0,1.02.16,1.79.46,2.32.31.52.77.75,1.39.68.62-.07,1.04-.26,1.25-.57.22-.32.33-.97.33-1.96Z"/>
    <path d="m256.86,408.33c.48-.03.72-.04,1.21-.07.67-7.7,1-11.55,1.67-19.25,2.76-.15,4.15-.22,6.91-.32.67,7.64,1,11.46,1.67,19.1.48-.02.72-.02,1.21-.04.22-7.67.33-11.5.56-19.17,4.64-.13,6.96-.16,11.6-.14-1.14,10.82-2.29,21.64-3.43,32.47-5.29.02-7.93.09-13.22.32-.61-4.07-.92-6.11-1.53-10.18-.26.01-.39.02-.65.03-.61,4.13-.92,6.19-1.53,10.33-5.27.27-7.9.45-13.17.88-1.14-10.73-2.29-21.45-3.43-32.18,4.64-.4,6.96-.58,11.6-.87.22,7.65.33,11.47.56,19.12Z"/>
    <path d="m283.3,388.45c4.17.05,6.26.11,10.44.31v32.47c-4.17-.2-6.26-.26-10.44-.31v-32.47Z"/>
    <path d="m316,390.83v9.74c-3.78-.53-5.68-.76-9.46-1.13v2.27c3.71.37,5.57.59,9.28,1.11v9.97c-3.71-.52-5.57-.74-9.28-1.11v10.48c-4.17-.41-6.26-.57-10.44-.81v-32.47c7.96.46,11.94.82,19.9,1.95Z"/>
    <path d="m322.77,401.17c-1.95-.34-2.92-.49-4.87-.79v-9.28c8.07,1.21,12.11,1.99,20.18,4.03v9.28c-1.95-.49-2.92-.72-4.87-1.17v23.19c-4.17-.94-6.26-1.36-10.44-2.08v-23.19Z"/>
  </g>
</svg>