<?xml version="1.0" encoding="utf-8"?>
<!-- Generator: Adobe Illustrator 27.1.0, SVG Export Plug-In . SVG Version: 6.00 Build 0)  -->
<svg version="1.1" id="Layer_1" xmlns="http://www.w3.org/2000/svg" xmlns:xlink="http://www.w3.org/1999/xlink" x="0px" y="0px"
	 viewBox="0 0 250 250" style="enable-background:new 0 0 250 250;" xml:space="preserve">
<style type="text/css">
	.st0{fill:#FFFFFF;}
</style>
<g>
	<g>
		<circle cx="125" cy="126" r="115"/>
	</g>
	<path class="st0" d="M189.44,88c0-0.67-0.02-0.69-0.72-0.69c-1.68,0.02-3.35-0.19-5.01-0.44c-6.02-0.91-25.53-11.15-28.84-27.89
		c-0.06-0.33-0.8-4.48-0.79-6.25c0-0.79-0.01-0.79-0.79-0.81c-0.18,0-0.36,0-0.54,0c-7.64,0-15.27,0-22.91,0
		c-1.54,0-1.32-0.19-1.32,1.35c0,33.12,0,66.24,0,99.36c0,1.24-0.04,2.47-0.25,3.68c-1.15,6.41-4.43,11.42-9.99,14.85
		c-4.81,2.97-10.04,3.81-15.58,2.72c-1.75-0.35-3.39-1-5.03-1.66c-0.13-0.12-0.27-0.24-0.4-0.36c-0.55-0.46-1.16-0.85-1.75-1.26
		c-7.07-4.9-10.42-11.69-9.4-20.19c1.04-8.62,6-14.48,14.17-17.49c2.44-0.9,5.01-1.27,7.61-1.13c1.68,0.09,3.35,0.3,4.98,0.77
		c0.56,0.16,0.87-0.04,0.9-0.64c0.01-0.21,0.02-0.42,0.02-0.63c0-5.95-0.22-18.93-0.25-18.96c0.01-1.71,0.01-3.42,0.04-5.14
		c0.01-0.49-0.24-0.58-0.65-0.63c-3.08-0.37-6.16-0.43-9.26-0.21c-4.28,0.31-8.43,1.19-12.46,2.64
		c-6.43,2.31-12.08,5.89-16.95,10.67c-4.19,4.1-7.48,8.84-9.89,14.19c-2.31,5.11-3.63,10.48-4,16.07c-0.16,2.42-0.13,4.86,0.1,7.29
		c0.31,3.36,0.95,6.65,1.97,9.86c2.94,9.23,8.28,16.8,15.86,22.81c0.77,0.61,1.51,1.28,2.43,1.68c0,0,0,0,0,0
		c0.39,0.34,0.77,0.69,1.16,1.03c1.23,0.92,2.54,1.71,3.91,2.39c8.49,4.19,17.43,5.9,26.85,4.75c12.23-1.49,22.42-6.91,30.44-16.25
		c7.55-8.79,11.22-19.1,11.28-30.64c0.1-16.49,0.02-32.99,0.03-49.48c0-0.39-0.23-0.95,0.21-1.15c0.34-0.15,0.68,0.3,1,0.5
		c6.14,4.03,12.76,6.95,19.93,8.59c4.17,0.95,8.39,1.53,12.68,1.53c1.35,0,1.53-0.07,1.54-1.41
		C189.75,105.56,189.44,89.55,189.44,88z"/>
</g>
</svg>
